PathFileType	4	(X/Y/Z)	C:/Users/opensim2020/Desktop/walking_exp_matlab/subject01_walking08_straight_01.trc																																																																																																																															
DataRate	CameraRate	NumFrames	NumMarkers	Units	OrigDataRate	OrigDataStartFrame	OrigNumFrames																																																																																																																											
100	100	5	43	mm	100	824	377																																																																																																																											
Frame#	Time	LFHD			RFHD			LBHD			RBHD			C7			T10			CLAV			STRN			RBAK			LSHO			LUPA			LELB			LFRM			LWRA			LWRB			LFIN			RSHO			RUPA			RELB			RFRM			RWRA			RWRB			RFIN			LASI			RASI			LPSI			RPSI			LTHI			LKNE			LTIB			LANK			LHEE			LTOE			RTHI			RKNE			RTIB			RANK			RHEE			RTOE			*39			*40			*41			*42		
		X1	Y1	Z1	X2	Y2	Z2	X3	Y3	Z3	X4	Y4	Z4	X5	Y5	Z5	X6	Y6	Z6	X7	Y7	Z7	X8	Y8	Z8	X9	Y9	Z9	X10	Y10	Z10	X11	Y11	Z11	X12	Y12	Z12	X13	Y13	Z13	X14	Y14	Z14	X15	Y15	Z15	X16	Y16	Z16	X17	Y17	Z17	X18	Y18	Z18	X19	Y19	Z19	X20	Y20	Z20	X21	Y21	Z21	X22	Y22	Z22	X23	Y23	Z23	X24	Y24	Z24	X25	Y25	Z25	X26	Y26	Z26	X27	Y27	Z27	X28	Y28	Z28	X29	Y29	Z29	X30	Y30	Z30	X31	Y31	Z31	X32	Y32	Z32	X33	Y33	Z33	X34	Y34	Z34	X35	Y35	Z35	X36	Y36	Z36	X37	Y37	Z37	X38	Y38	Z38	X39	Y39	Z39	X40	Y40	Z40	X41	Y41	Z41	X42	Y42	Z42	X43	Y43	Z43
																																																																																																																																		
95	0.94	-776.7074	1678.43372	-1161.82642	-773.50269	1690.40869	-1048.46973	-878.7196	1605.37195	-1159.96204	-878.04773	1615.64575	-1039.71533	-884.78845	1432.89197	-1110.13074	-918.42499	1141.79541	-1080.64343	-739.62756	1368.61316	-1098.36658	-695.05841	1212.73706	-1093.10315	-940.30933	1244.70154	-1021.20679	-792.0152	1386.35181	-1263.17358	-793.84784	1198.17188	-1341.73987	-782.94513	1046.76819	-1337.65161	-716.92151	951.24432	-1352.64819	-613.17932	861.95959	-1321.34546	-662.24457	841.96033	-1349.93164	-597.89722	786.91327	-1351.6709	-808.03705	1401.69421	-950.57556	-865.51025	1207.56299	-839.95813	-865.65582	1081.98938	-833.96686	-838.34888	964.75006	-802.51733	-761.44885	846.53528	-824.25348	-804.16711	847.81714	-783.73535	-766.34052	770.98822	-785.51184	-740.74365	932.68384	-1168.89172	-748.07959	945.76379	-952.28888	-929.7439	943.24988	-1119.31616	-931.11456	948.67578	-974.07684	-774.70538	601.10394	-1213.22302	-788.43982	466.48663	-1194.89478	-844.44989	282.76834	-1198.81897	-869.86804	64.87109	-1138.59399	-915.19812	36.99484	-1085.05725	-719.47125	30.9129	-1133.54956	-725.78259	621.94843	-864.1394	-681.56421	468.10757	-875.51611	-773.48596	317.68759	-874.74426	-842.17871	122.28604	-922.37061	-888.78479	93.43562	-981.84363	-723.40509	45.63346	-900.86652	-792.32678	1718.80859	-1072.79749	1973.13525	1023.31653	-3101.99121	2012.4397	1022.00592	-3140.74609	NaN	NaN	NaN
96	0.95	-772.05841	1678.36365	-1162.14893	-768.92047	1690.30359	-1048.84424	-874.11554	1605.34277	-1160.38306	-873.48395	1615.65271	-1040.13525	-880.41492	1432.94116	-1110.48694	-913.86627	1141.73242	-1080.5979	-735.13348	1368.47095	-1098.73926	-690.64252	1212.60315	-1093.48914	-935.76495	1244.58716	-1021.50305	-787.62408	1386.10461	-1263.4989	-789.03741	1198.00134	-1342.01074	-777.6109	1046.53894	-1337.87854	-710.52557	951.61395	-1352.7594	-605.67487	863.65588	-1321.48853	-654.5517	842.99963	-1349.80518	-589.55389	788.71875	-1351.59033	-803.24158	1401.67664	-950.94684	-861.62488	1207.55652	-840.40192	-861.93732	1082.03113	-834.24634	-834.89142	964.63794	-802.71838	-758.1662	846.38666	-823.97424	-800.61218	847.73907	-783.78027	-763.33075	770.89404	-785.27167	-736.55536	932.49774	-1169.21753	-743.53033	945.70593	-952.54803	-925.48755	943.35645	-1119.08521	-926.20361	948.46198	-973.93042	-772.06128	601.00494	-1213.42175	-786.41663	466.36685	-1195.14539	-843.34668	282.92651	-1198.9386	-869.71112	65.03958	-1138.65784	-914.92224	37.08177	-1085.08777	-719.44232	30.85048	-1133.48193	-720.97119	621.92719	-864.31525	-675.25909	468.30969	-875.88702	-762.78485	315.26266	-874.42725	-825.84875	117.993	-921.20288	-871.0036	86.77193	-980.39166	-704.70233	45.16465	-899.82855	-787.69226	1718.77258	-1073.17029	1973.18262	1023.42871	-3102.12451	2012.44995	1021.95648	-3140.76147	NaN	NaN	NaN
97	0.96	-767.36523	1678.28772	-1162.42944	-764.31097	1690.32104	-1048.99683	-869.47803	1605.32922	-1160.69983	-868.93542	1615.61084	-1040.53625	-875.79303	1432.82935	-1110.70068	-909.3454	1141.69348	-1080.43494	-730.58459	1368.44727	-1099.45642	-686.09369	1212.46948	-1093.82959	-931.16217	1244.44067	-1021.68768	-783.21112	1385.79565	-1263.74426	-784.32147	1197.6958	-1342.13855	-772.25049	1046.2666	-1337.97339	-704.18024	951.96381	-1352.78577	-598.24335	865.3833	-1321.50769	-646.91138	844.05237	-1349.69116	-581.31232	790.53693	-1351.49707	-799.00824	1401.49756	-951.06952	-857.72388	1207.54871	-840.73944	-858.46741	1082.01526	-834.46875	-831.4101	964.64026	-802.77539	-754.75183	846.37341	-823.57312	-797.9491	847.79022	-783.72742	-760.43579	770.82129	-784.84686	-732.37366	932.25336	-1169.4917	-738.84808	945.65887	-952.75037	-921.18726	943.50482	-1118.85913	-922.59753	949.06506	-973.62408	-769.45935	600.54254	-1213.61377	-784.38708	466.24936	-1195.32849	-842.18359	283.09869	-1199.02527	-869.6217	65.28337	-1138.79651	-915.01447	37.56579	-1085.10046	-719.46912	30.8837	-1133.64856	-716.19281	621.83594	-864.5246	-669.53607	468.53271	-876.53406	-752.33716	313.04514	-874.00159	-809.32959	113.80648	-919.80487	-854.23651	81.39023	-978.76105	-685.86493	44.74605	-898.80469	-783.03925	1718.68701	-1073.48743	1973.20618	1023.31482	-3101.96753	2012.51038	1022.06647	-3140.70923	NaN	NaN	NaN
98	0.97	-762.67816	1678.16052	-1162.67261	-759.69275	1690.27551	-1049.15088	-864.80756	1605.29565	-1161.0332	-864.36426	1615.61609	-1040.78467	-871.50464	1432.82288	-1110.8562	-904.74927	1141.59033	-1080.24915	-725.96814	1368.26685	-1099.57446	-681.56439	1212.35754	-1094.07239	-926.54028	1244.30725	-1021.73108	-778.85492	1385.54517	-1263.91296	-779.42841	1197.50891	-1342.36353	-767.07184	1045.88855	-1337.96301	-697.81641	952.24353	-1352.74304	-590.80682	867.13995	-1321.51794	-639.35699	845.10693	-1349.37988	-573.17737	792.48022	-1351.36169	-794.11591	1401.60059	-951.15369	-853.72656	1207.53564	-840.97919	-854.55151	1082.01599	-834.60797	-827.84314	964.5799	-802.84351	-751.41962	846.1413	-823.24213	-794.56299	847.40192	-783.68518	-757.35645	770.76721	-784.4184	-728.19617	932.00867	-1169.67932	-734.17548	945.60291	-952.8681	-916.81421	943.60419	-1118.61511	-916.97888	948.53741	-973.54327	-766.49933	600.57123	-1213.91431	-782.3418	466.04327	-1195.3678	-841.08044	283.22116	-1199.1554	-869.53973	65.40385	-1138.89392	-914.99323	37.84565	-1085.1344	-719.43542	30.85521	-1133.70044	-711.67218	621.74561	-864.76471	-664.2063	468.8436	-877.12048	-741.78833	310.91205	-873.56866	-792.95831	109.65216	-918.28961	-837.0553	75.71117	-976.90186	-666.92828	44.46966	-897.90186	-778.36115	1718.5647	-1073.79285	1973.1134	1023.42096	-3101.91479	2012.52222	1022.04266	-3140.62915	NaN	NaN	NaN
99	0.98	-757.92145	1678.0542	-1162.79395	-754.90381	1690.18506	-1049.39514	-860.11926	1605.2356	-1161.21069	-859.51538	1615.54321	-1040.91211	-866.70709	1432.72668	-1110.8429	-900.17419	1141.51672	-1079.97913	-721.66809	1368.21875	-1099.80029	-676.9588	1212.18323	-1094.29016	-921.80719	1244.1543	-1021.6701	-774.45288	1385.31934	-1263.97034	-774.83313	1197.1792	-1342.22314	-761.77637	1045.52637	-1337.84583	-691.56091	952.70331	-1352.5752	-583.45276	868.89056	-1321.4574	-631.83185	846.17102	-1348.99646	-565.21722	794.10333	-1350.95496	-789.43921	1401.47742	-951.27649	-849.64667	1207.5675	-841.12506	-850.60693	1082.06091	-834.69855	-824.19653	964.62299	-802.80011	-747.9444	846.00281	-822.74316	-791.31378	847.36731	-783.40051	-754.10535	770.64648	-783.96777	-723.92944	931.72174	-1169.81018	-729.5332	945.41766	-953.0274	-912.43579	943.73248	-1118.37463	-912.9447	949.15851	-973.13043	-763.75623	600.16364	-1213.86621	-780.37274	465.84955	-1195.42456	-840.04602	283.34653	-1199.14758	-869.39215	65.64228	-1138.96521	-914.93829	38.13672	-1085.13684	-719.43768	30.8504	-1133.73157	-707.33624	621.55396	-864.9458	-658.34985	468.9068	-877.67023	-731.90759	309.08881	-872.92072	-776.0473	105.76417	-916.74438	-820.07837	70.70374	-974.87073	-648.14648	44.41326	-896.90393	-773.6936	1718.42908	-1073.95081	1973.18896	1023.63776	-3101.96484	2012.5033	1021.98132	-3140.76953	NaN	NaN	NaN
